  0
SECTION
  2
HEADER
  9
$ACADVER
  1
AC1009
  9
$EXTMIN
 10
0.0
 20
0.0
 30
0.0
  9
$EXTMAX
 10
1000.0
 20
1000.0
 30
0.0
  9
$FILLMODE
 70
 0
  9
$SPLFRAME
 70
 1
  0
ENDSEC
  0
SECTION
  2
TABLES
  0
TABLE
  2
LAYER
 70
1
  0
LAYER
  2
0
 70
     0
 62
     7
  6
CONTINUOUS
  0
ENDTAB
  0
ENDSEC
  0
SECTION
  2
ENTITIES
  0
LINE
  8
0
 62
     0
 10
349.907
 20
99.4985
 30
0.0
 11
350.065
 21
99.4929
 31
0.0
  0
LINE
  8
0
 62
     0
 10
350.065
 20
99.4929
 30
0.0
 11
350.22
 21
99.4752
 31
0.0
  0
LINE
  8
0
 62
     0
 10
350.22
 20
99.4752
 30
0.0
 11
350.375
 21
99.4435
 31
0.0
  0
LINE
  8
0
 62
     0
 10
350.375
 20
99.4435
 30
0.0
 11
350.526
 21
99.4022
 31
0.0
  0
LINE
  8
0
 62
     0
 10
350.526
 20
99.4022
 30
0.0
 11
350.672
 21
99.3468
 31
0.0
  0
LINE
  8
0
 62
     0
 10
350.672
 20
99.3468
 30
0.0
 11
350.816
 21
99.2822
 31
0.0
  0
LINE
  8
0
 62
     0
 10
350.816
 20
99.2822
 30
0.0
 11
350.953
 21
99.205
 31
0.0
  0
LINE
  8
0
 62
     0
 10
350.953
 20
99.205
 30
0.0
 11
351.084
 21
99.1182
 31
0.0
  0
LINE
  8
0
 62
     0
 10
351.084
 20
99.1182
 30
0.0
 11
351.207
 21
99.0205
 31
0.0
  0
LINE
  8
0
 62
     0
 10
351.207
 20
99.0205
 30
0.0
 11
351.321
 21
98.9143
 31
0.0
  0
LINE
  8
0
 62
     0
 10
351.321
 20
98.9143
 30
0.0
 11
351.429
 21
98.7986
 31
0.0
  0
LINE
  8
0
 62
     0
 10
351.429
 20
98.7986
 30
0.0
 11
351.525
 21
98.6744
 31
0.0
  0
LINE
  8
0
 62
     0
 10
351.525
 20
98.6744
 30
0.0
 11
351.613
 21
98.5435
 31
0.0
  0
LINE
  8
0
 62
     0
 10
351.613
 20
98.5435
 30
0.0
 11
351.689
 21
98.407
 31
0.0
  0
LINE
  8
0
 62
     0
 10
351.689
 20
98.407
 30
0.0
 11
351.755
 21
98.2652
 31
0.0
  0
LINE
  8
0
 62
     0
 10
351.755
 20
98.2652
 30
0.0
 11
351.81
 21
98.1177
 31
0.0
  0
LINE
  8
0
 62
     0
 10
351.81
 20
98.1177
 30
0.0
 11
351.853
 21
97.966
 31
0.0
  0
LINE
  8
0
 62
     0
 10
351.853
 20
97.966
 30
0.0
 11
351.882
 21
97.8119
 31
0.0
  0
LINE
  8
0
 62
     0
 10
351.882
 20
97.8119
 30
0.0
 11
351.901
 21
97.6559
 31
0.0
  0
LINE
  8
0
 62
     0
 10
351.901
 20
97.6559
 30
0.0
 11
351.908
 21
97.499
 31
0.0
  0
LINE
  8
0
 62
     0
 10
351.908
 20
97.499
 30
0.0
 11
351.908
 21
2.09737
 31
0.0
  0
LINE
  8
0
 62
     0
 10
351.908
 20
2.09737
 30
0.0
 11
351.901
 21
1.94166
 31
0.0
  0
LINE
  8
0
 62
     0
 10
351.901
 20
1.94166
 30
0.0
 11
351.882
 21
1.78594
 31
0.0
  0
LINE
  8
0
 62
     0
 10
351.882
 20
1.78594
 30
0.0
 11
351.853
 21
1.6316
 31
0.0
  0
LINE
  8
0
 62
     0
 10
351.853
 20
1.6316
 30
0.0
 11
351.81
 21
1.48001
 31
0.0
  0
LINE
  8
0
 62
     0
 10
351.81
 20
1.48001
 30
0.0
 11
351.755
 21
1.33256
 31
0.0
  0
LINE
  8
0
 62
     0
 10
351.755
 20
1.33256
 30
0.0
 11
351.689
 21
1.19063
 31
0.0
  0
LINE
  8
0
 62
     0
 10
351.689
 20
1.19063
 30
0.0
 11
351.613
 21
1.0542
 31
0.0
  0
LINE
  8
0
 62
     0
 10
351.613
 20
1.0542
 30
0.0
 11
351.525
 21
0.923286
 31
0.0
  0
LINE
  8
0
 62
     0
 10
351.525
 20
0.923286
 30
0.0
 11
351.429
 21
0.799264
 31
0.0
  0
LINE
  8
0
 62
     0
 10
351.429
 20
0.799264
 30
0.0
 11
351.321
 21
0.683507
 31
0.0
  0
LINE
  8
0
 62
     0
 10
351.321
 20
0.683507
 30
0.0
 11
351.207
 21
0.577398
 31
0.0
  0
LINE
  8
0
 62
     0
 10
351.207
 20
0.577398
 30
0.0
 11
351.084
 21
0.479559
 31
0.0
  0
LINE
  8
0
 62
     0
 10
351.084
 20
0.479559
 30
0.0
 11
350.953
 21
0.39274
 31
0.0
  0
LINE
  8
0
 62
     0
 10
350.953
 20
0.39274
 30
0.0
 11
350.816
 21
0.315571
 31
0.0
  0
LINE
  8
0
 62
     0
 10
350.816
 20
0.315571
 30
0.0
 11
350.672
 21
0.250803
 31
0.0
  0
LINE
  8
0
 62
     0
 10
350.672
 20
0.250803
 30
0.0
 11
350.526
 21
0.195682
 31
0.0
  0
LINE
  8
0
 62
     0
 10
350.526
 20
0.195682
 30
0.0
 11
350.375
 21
0.15434
 31
0.0
  0
LINE
  8
0
 62
     0
 10
350.375
 20
0.15434
 30
0.0
 11
350.22
 21
0.122645
 31
0.0
  0
LINE
  8
0
 62
     0
 10
350.22
 20
0.122645
 30
0.0
 11
350.065
 21
0.104731
 31
0.0
  0
LINE
  8
0
 62
     0
 10
350.065
 20
0.104731
 30
0.0
 11
349.907
 21
0.0992188
 31
0.0
  0
LINE
  8
0
 62
     0
 10
349.907
 20
0.0992188
 30
0.0
 11
2.09462
 21
0.0978408
 31
0.0
  0
LINE
  8
0
 62
     0
 10
2.09462
 20
0.0978408
 30
0.0
 11
1.93752
 21
0.104731
 31
0.0
  0
LINE
  8
0
 62
     0
 10
1.93752
 20
0.104731
 30
0.0
 11
1.7818
 21
0.122645
 31
0.0
  0
LINE
  8
0
 62
     0
 10
1.7818
 20
0.122645
 30
0.0
 11
1.62746
 21
0.15434
 31
0.0
  0
LINE
  8
0
 62
     0
 10
1.62746
 20
0.15434
 30
0.0
 11
1.47588
 21
0.195682
 31
0.0
  0
LINE
  8
0
 62
     0
 10
1.47588
 20
0.195682
 30
0.0
 11
1.32843
 21
0.250803
 31
0.0
  0
LINE
  8
0
 62
     0
 10
1.32843
 20
0.250803
 30
0.0
 11
1.18649
 21
0.315571
 31
0.0
  0
LINE
  8
0
 62
     0
 10
1.18649
 20
0.315571
 30
0.0
 11
1.05006
 21
0.39274
 31
0.0
  0
LINE
  8
0
 62
     0
 10
1.05006
 20
0.39274
 30
0.0
 11
0.919152
 21
0.479559
 31
0.0
  0
LINE
  8
0
 62
     0
 10
0.919152
 20
0.479559
 30
0.0
 11
0.795129
 21
0.577398
 31
0.0
  0
LINE
  8
0
 62
     0
 10
0.795129
 20
0.577398
 30
0.0
 11
0.679372
 21
0.683507
 31
0.0
  0
LINE
  8
0
 62
     0
 10
0.679372
 20
0.683507
 30
0.0
 11
0.573264
 21
0.799264
 31
0.0
  0
LINE
  8
0
 62
     0
 10
0.573264
 20
0.799264
 30
0.0
 11
0.475424
 21
0.923286
 31
0.0
  0
LINE
  8
0
 62
     0
 10
0.475424
 20
0.923286
 30
0.0
 11
0.388606
 21
1.0542
 31
0.0
  0
LINE
  8
0
 62
     0
 10
0.388606
 20
1.0542
 30
0.0
 11
0.311437
 21
1.19063
 31
0.0
  0
LINE
  8
0
 62
     0
 10
0.311437
 20
1.19063
 30
0.0
 11
0.246669
 21
1.33256
 31
0.0
  0
LINE
  8
0
 62
     0
 10
0.246669
 20
1.33256
 30
0.0
 11
0.191547
 21
1.48001
 31
0.0
  0
LINE
  8
0
 62
     0
 10
0.191547
 20
1.48001
 30
0.0
 11
0.150206
 21
1.6316
 31
0.0
  0
LINE
  8
0
 62
     0
 10
0.150206
 20
1.6316
 30
0.0
 11
0.118511
 21
1.78594
 31
0.0
  0
LINE
  8
0
 62
     0
 10
0.118511
 20
1.78594
 30
0.0
 11
0.100597
 21
1.94166
 31
0.0
  0
LINE
  8
0
 62
     0
 10
0.100597
 20
1.94166
 30
0.0
 11
0.0937066
 21
2.09737
 31
0.0
  0
LINE
  8
0
 62
     0
 10
0.0937066
 20
2.09737
 30
0.0
 11
0.0950846
 21
97.499
 31
0.0
  0
LINE
  8
0
 62
     0
 10
0.0950846
 20
97.499
 30
0.0
 11
0.100597
 21
97.6559
 31
0.0
  0
LINE
  8
0
 62
     0
 10
0.100597
 20
97.6559
 30
0.0
 11
0.118511
 21
97.8119
 31
0.0
  0
LINE
  8
0
 62
     0
 10
0.118511
 20
97.8119
 30
0.0
 11
0.150206
 21
97.966
 31
0.0
  0
LINE
  8
0
 62
     0
 10
0.150206
 20
97.966
 30
0.0
 11
0.191547
 21
98.1177
 31
0.0
  0
LINE
  8
0
 62
     0
 10
0.191547
 20
98.1177
 30
0.0
 11
0.246669
 21
98.2652
 31
0.0
  0
LINE
  8
0
 62
     0
 10
0.246669
 20
98.2652
 30
0.0
 11
0.311437
 21
98.407
 31
0.0
  0
LINE
  8
0
 62
     0
 10
0.311437
 20
98.407
 30
0.0
 11
0.388606
 21
98.5435
 31
0.0
  0
LINE
  8
0
 62
     0
 10
0.388606
 20
98.5435
 30
0.0
 11
0.475424
 21
98.6744
 31
0.0
  0
LINE
  8
0
 62
     0
 10
0.475424
 20
98.6744
 30
0.0
 11
0.573264
 21
98.7986
 31
0.0
  0
LINE
  8
0
 62
     0
 10
0.573264
 20
98.7986
 30
0.0
 11
0.679372
 21
98.9143
 31
0.0
  0
LINE
  8
0
 62
     0
 10
0.679372
 20
98.9143
 30
0.0
 11
0.795129
 21
99.0205
 31
0.0
  0
LINE
  8
0
 62
     0
 10
0.795129
 20
99.0205
 30
0.0
 11
0.919152
 21
99.1182
 31
0.0
  0
LINE
  8
0
 62
     0
 10
0.919152
 20
99.1182
 30
0.0
 11
1.05006
 21
99.205
 31
0.0
  0
LINE
  8
0
 62
     0
 10
1.05006
 20
99.205
 30
0.0
 11
1.18649
 21
99.2822
 31
0.0
  0
LINE
  8
0
 62
     0
 10
1.18649
 20
99.2822
 30
0.0
 11
1.32843
 21
99.3468
 31
0.0
  0
LINE
  8
0
 62
     0
 10
1.32843
 20
99.3468
 30
0.0
 11
1.47588
 21
99.4022
 31
0.0
  0
LINE
  8
0
 62
     0
 10
1.47588
 20
99.4022
 30
0.0
 11
1.62746
 21
99.4435
 31
0.0
  0
LINE
  8
0
 62
     0
 10
1.62746
 20
99.4435
 30
0.0
 11
1.7818
 21
99.4752
 31
0.0
  0
LINE
  8
0
 62
     0
 10
1.7818
 20
99.4752
 30
0.0
 11
1.93752
 21
99.4929
 31
0.0
  0
LINE
  8
0
 62
     0
 10
1.93752
 20
99.4929
 30
0.0
 11
2.09462
 21
99.4999
 31
0.0
  0
LINE
  8
0
 62
     0
 10
2.09462
 20
99.4999
 30
0.0
 11
349.907
 21
99.4985
 31
0.0
  0
LINE
  8
0
 62
     0
 10
126.213
 20
18.6242
 30
0.0
 11
126.213
 21
13.9237
 31
0.0
  0
LINE
  8
0
 62
     0
 10
126.213
 20
13.9237
 30
0.0
 11
86.4376
 21
13.9237
 31
0.0
  0
LINE
  8
0
 62
     0
 10
86.4376
 20
13.9237
 30
0.0
 11
86.4376
 21
17.1538
 31
0.0
  0
LINE
  8
0
 62
     0
 10
86.4376
 20
17.1538
 30
0.0
 11
79.8382
 21
17.1538
 31
0.0
  0
LINE
  8
0
 62
     0
 10
79.8382
 20
17.1538
 30
0.0
 11
79.8382
 21
13.9237
 31
0.0
  0
LINE
  8
0
 62
     0
 10
79.8382
 20
13.9237
 30
0.0
 11
79.0127
 21
13.9237
 31
0.0
  0
LINE
  8
0
 62
     0
 10
79.0127
 20
13.9237
 30
0.0
 11
79.0127
 21
11.2737
 31
0.0
  0
LINE
  8
0
 62
     0
 10
79.0127
 20
11.2737
 30
0.0
 11
79.8382
 21
11.2737
 31
0.0
  0
LINE
  8
0
 62
     0
 10
79.8382
 20
11.2737
 30
0.0
 11
79.8382
 21
5.00503
 31
0.0
  0
LINE
  8
0
 62
     0
 10
79.8382
 20
5.00503
 30
0.0
 11
81.5633
 21
5.00503
 31
0.0
  0
LINE
  8
0
 62
     0
 10
81.5633
 20
5.00503
 30
0.0
 11
81.5633
 21
3.8034
 31
0.0
  0
LINE
  8
0
 62
     0
 10
81.5633
 20
3.8034
 30
0.0
 11
84.7122
 21
3.8034
 31
0.0
  0
LINE
  8
0
 62
     0
 10
84.7122
 20
3.8034
 30
0.0
 11
84.7122
 21
5.00503
 31
0.0
  0
LINE
  8
0
 62
     0
 10
84.7122
 20
5.00503
 30
0.0
 11
86.4376
 21
5.00503
 31
0.0
  0
LINE
  8
0
 62
     0
 10
86.4376
 20
5.00503
 30
0.0
 11
86.4376
 21
9.4754
 31
0.0
  0
LINE
  8
0
 62
     0
 10
86.4376
 20
9.4754
 30
0.0
 11
126.213
 21
9.4754
 31
0.0
  0
LINE
  8
0
 62
     0
 10
126.213
 20
9.4754
 30
0.0
 11
126.213
 21
4.77354
 31
0.0
  0
LINE
  8
0
 62
     0
 10
126.213
 20
4.77354
 30
0.0
 11
140.062
 21
4.77354
 31
0.0
  0
LINE
  8
0
 62
     0
 10
140.062
 20
4.77354
 30
0.0
 11
140.062
 21
9.4754
 31
0.0
  0
LINE
  8
0
 62
     0
 10
140.062
 20
9.4754
 30
0.0
 11
179.838
 21
9.4754
 31
0.0
  0
LINE
  8
0
 62
     0
 10
179.838
 20
9.4754
 30
0.0
 11
179.838
 21
5.00503
 31
0.0
  0
LINE
  8
0
 62
     0
 10
179.838
 20
5.00503
 30
0.0
 11
181.563
 21
5.00503
 31
0.0
  0
LINE
  8
0
 62
     0
 10
181.563
 20
5.00503
 30
0.0
 11
181.563
 21
3.8034
 31
0.0
  0
LINE
  8
0
 62
     0
 10
181.563
 20
3.8034
 30
0.0
 11
184.712
 21
3.8034
 31
0.0
  0
LINE
  8
0
 62
     0
 10
184.712
 20
3.8034
 30
0.0
 11
184.712
 21
5.00503
 31
0.0
  0
LINE
  8
0
 62
     0
 10
184.712
 20
5.00503
 30
0.0
 11
186.437
 21
5.00503
 31
0.0
  0
LINE
  8
0
 62
     0
 10
186.437
 20
5.00503
 30
0.0
 11
186.437
 21
11.2737
 31
0.0
  0
LINE
  8
0
 62
     0
 10
186.437
 20
11.2737
 30
0.0
 11
187.263
 21
11.2737
 31
0.0
  0
LINE
  8
0
 62
     0
 10
187.263
 20
11.2737
 30
0.0
 11
187.263
 21
13.9237
 31
0.0
  0
LINE
  8
0
 62
     0
 10
187.263
 20
13.9237
 30
0.0
 11
186.437
 21
13.9237
 31
0.0
  0
LINE
  8
0
 62
     0
 10
186.437
 20
13.9237
 30
0.0
 11
186.437
 21
17.1538
 31
0.0
  0
LINE
  8
0
 62
     0
 10
186.437
 20
17.1538
 30
0.0
 11
179.838
 21
17.1538
 31
0.0
  0
LINE
  8
0
 62
     0
 10
179.838
 20
17.1538
 30
0.0
 11
179.838
 21
13.9237
 31
0.0
  0
LINE
  8
0
 62
     0
 10
179.838
 20
13.9237
 30
0.0
 11
140.062
 21
13.9237
 31
0.0
  0
LINE
  8
0
 62
     0
 10
140.062
 20
13.9237
 30
0.0
 11
140.062
 21
18.6242
 31
0.0
  0
LINE
  8
0
 62
     0
 10
140.062
 20
18.6242
 30
0.0
 11
126.213
 21
18.6242
 31
0.0
  0
LINE
  8
0
 62
     0
 10
7.15063
 20
18.6242
 30
0.0
 11
21.0013
 21
18.6242
 31
0.0
  0
LINE
  8
0
 62
     0
 10
21.0013
 20
18.6242
 30
0.0
 11
21.0013
 21
4.77354
 31
0.0
  0
LINE
  8
0
 62
     0
 10
21.0013
 20
4.77354
 30
0.0
 11
7.15063
 21
4.77354
 31
0.0
  0
LINE
  8
0
 62
     0
 10
7.15063
 20
4.77354
 30
0.0
 11
7.15063
 21
18.6242
 31
0.0
  0
LINE
  8
0
 62
     0
 10
30.9631
 20
18.6242
 30
0.0
 11
44.8123
 21
18.6242
 31
0.0
  0
LINE
  8
0
 62
     0
 10
44.8123
 20
18.6242
 30
0.0
 11
44.8123
 21
4.77354
 31
0.0
  0
LINE
  8
0
 62
     0
 10
44.8123
 20
4.77354
 30
0.0
 11
30.9631
 21
4.77354
 31
0.0
  0
LINE
  8
0
 62
     0
 10
30.9631
 20
4.77354
 30
0.0
 11
30.9631
 21
18.6242
 31
0.0
  0
LINE
  8
0
 62
     0
 10
54.7758
 20
18.6242
 30
0.0
 11
68.6262
 21
18.6242
 31
0.0
  0
LINE
  8
0
 62
     0
 10
68.6262
 20
18.6242
 30
0.0
 11
68.6262
 21
4.77354
 31
0.0
  0
LINE
  8
0
 62
     0
 10
68.6262
 20
4.77354
 30
0.0
 11
54.7758
 21
4.77354
 31
0.0
  0
LINE
  8
0
 62
     0
 10
54.7758
 20
4.77354
 30
0.0
 11
54.7758
 21
18.6242
 31
0.0
  0
LINE
  8
0
 62
     0
 10
197.651
 20
18.6242
 30
0.0
 11
211.501
 21
18.6242
 31
0.0
  0
LINE
  8
0
 62
     0
 10
211.501
 20
18.6242
 30
0.0
 11
211.501
 21
4.77354
 31
0.0
  0
LINE
  8
0
 62
     0
 10
211.501
 20
4.77354
 30
0.0
 11
197.651
 21
4.77354
 31
0.0
  0
LINE
  8
0
 62
     0
 10
197.651
 20
4.77354
 30
0.0
 11
197.651
 21
18.6242
 31
0.0
  0
LINE
  8
0
 62
     0
 10
221.463
 20
18.6242
 30
0.0
 11
235.312
 21
18.6242
 31
0.0
  0
LINE
  8
0
 62
     0
 10
235.312
 20
18.6242
 30
0.0
 11
235.312
 21
4.77354
 31
0.0
  0
LINE
  8
0
 62
     0
 10
235.312
 20
4.77354
 30
0.0
 11
221.463
 21
4.77354
 31
0.0
  0
LINE
  8
0
 62
     0
 10
221.463
 20
4.77354
 30
0.0
 11
221.463
 21
18.6242
 31
0.0
  0
LINE
  8
0
 62
     0
 10
245.276
 20
18.6242
 30
0.0
 11
259.126
 21
18.6242
 31
0.0
  0
LINE
  8
0
 62
     0
 10
259.126
 20
18.6242
 30
0.0
 11
259.126
 21
4.77354
 31
0.0
  0
LINE
  8
0
 62
     0
 10
259.126
 20
4.77354
 30
0.0
 11
245.276
 21
4.77354
 31
0.0
  0
LINE
  8
0
 62
     0
 10
245.276
 20
4.77354
 30
0.0
 11
245.276
 21
18.6242
 31
0.0
  0
LINE
  8
0
 62
     0
 10
269.088
 20
18.6242
 30
0.0
 11
282.937
 21
18.6242
 31
0.0
  0
LINE
  8
0
 62
     0
 10
282.937
 20
18.6242
 30
0.0
 11
282.937
 21
4.77354
 31
0.0
  0
LINE
  8
0
 62
     0
 10
282.937
 20
4.77354
 30
0.0
 11
269.088
 21
4.77354
 31
0.0
  0
LINE
  8
0
 62
     0
 10
269.088
 20
4.77354
 30
0.0
 11
269.088
 21
18.6242
 31
0.0
  0
LINE
  8
0
 62
     0
 10
295.282
 20
18.6242
 30
0.0
 11
309.131
 21
18.6242
 31
0.0
  0
LINE
  8
0
 62
     0
 10
309.131
 20
18.6242
 30
0.0
 11
309.131
 21
4.77354
 31
0.0
  0
LINE
  8
0
 62
     0
 10
309.131
 20
4.77354
 30
0.0
 11
295.282
 21
4.77354
 31
0.0
  0
LINE
  8
0
 62
     0
 10
295.282
 20
4.77354
 30
0.0
 11
295.282
 21
18.6242
 31
0.0
  0
LINE
  8
0
 62
     0
 10
314.332
 20
18.6242
 30
0.0
 11
328.181
 21
18.6242
 31
0.0
  0
LINE
  8
0
 62
     0
 10
328.181
 20
18.6242
 30
0.0
 11
328.181
 21
4.77354
 31
0.0
  0
LINE
  8
0
 62
     0
 10
328.181
 20
4.77354
 30
0.0
 11
314.332
 21
4.77354
 31
0.0
  0
LINE
  8
0
 62
     0
 10
314.332
 20
4.77354
 30
0.0
 11
314.332
 21
18.6242
 31
0.0
  0
LINE
  8
0
 62
     0
 10
333.382
 20
18.6242
 30
0.0
 11
347.231
 21
18.6242
 31
0.0
  0
LINE
  8
0
 62
     0
 10
347.231
 20
18.6242
 30
0.0
 11
347.231
 21
4.77354
 31
0.0
  0
LINE
  8
0
 62
     0
 10
347.231
 20
4.77354
 30
0.0
 11
333.382
 21
4.77354
 31
0.0
  0
LINE
  8
0
 62
     0
 10
333.382
 20
4.77354
 30
0.0
 11
333.382
 21
18.6242
 31
0.0
  0
LINE
  8
0
 62
     0
 10
16.6756
 20
37.6742
 30
0.0
 11
16.6756
 21
32.9737
 31
0.0
  0
LINE
  8
0
 62
     0
 10
16.6756
 20
32.9737
 30
0.0
 11
15.0013
 21
32.9737
 31
0.0
  0
LINE
  8
0
 62
     0
 10
15.0013
 20
32.9737
 30
0.0
 11
15.0013
 21
36.2038
 31
0.0
  0
LINE
  8
0
 62
     0
 10
15.0013
 20
36.2038
 30
0.0
 11
8.40052
 21
36.2038
 31
0.0
  0
LINE
  8
0
 62
     0
 10
8.40052
 20
36.2038
 30
0.0
 11
8.40052
 21
32.9737
 31
0.0
  0
LINE
  8
0
 62
     0
 10
8.40052
 20
32.9737
 30
0.0
 11
7.57509
 21
32.9737
 31
0.0
  0
LINE
  8
0
 62
     0
 10
7.57509
 20
32.9737
 30
0.0
 11
7.57509
 21
30.3237
 31
0.0
  0
LINE
  8
0
 62
     0
 10
7.57509
 20
30.3237
 30
0.0
 11
8.40052
 21
30.3237
 31
0.0
  0
LINE
  8
0
 62
     0
 10
8.40052
 20
30.3237
 30
0.0
 11
8.40052
 21
24.0537
 31
0.0
  0
LINE
  8
0
 62
     0
 10
8.40052
 20
24.0537
 30
0.0
 11
10.1258
 21
24.0537
 31
0.0
  0
LINE
  8
0
 62
     0
 10
10.1258
 20
24.0537
 30
0.0
 11
10.1258
 21
22.8534
 31
0.0
  0
LINE
  8
0
 62
     0
 10
10.1258
 20
22.8534
 30
0.0
 11
13.276
 21
22.8534
 31
0.0
  0
LINE
  8
0
 62
     0
 10
13.276
 20
22.8534
 30
0.0
 11
13.276
 21
24.0537
 31
0.0
  0
LINE
  8
0
 62
     0
 10
13.276
 20
24.0537
 30
0.0
 11
15.0013
 21
24.0537
 31
0.0
  0
LINE
  8
0
 62
     0
 10
15.0013
 20
24.0537
 30
0.0
 11
15.0013
 21
28.524
 31
0.0
  0
LINE
  8
0
 62
     0
 10
15.0013
 20
28.524
 30
0.0
 11
16.6756
 21
28.524
 31
0.0
  0
LINE
  8
0
 62
     0
 10
16.6756
 20
28.524
 30
0.0
 11
16.6756
 21
23.8235
 31
0.0
  0
LINE
  8
0
 62
     0
 10
16.6756
 20
23.8235
 30
0.0
 11
30.5263
 21
23.8235
 31
0.0
  0
LINE
  8
0
 62
     0
 10
30.5263
 20
23.8235
 30
0.0
 11
30.5263
 21
28.524
 31
0.0
  0
LINE
  8
0
 62
     0
 10
30.5263
 20
28.524
 30
0.0
 11
32.2006
 21
28.524
 31
0.0
  0
LINE
  8
0
 62
     0
 10
32.2006
 20
28.524
 30
0.0
 11
32.2006
 21
24.0537
 31
0.0
  0
LINE
  8
0
 62
     0
 10
32.2006
 20
24.0537
 30
0.0
 11
33.9259
 21
24.0537
 31
0.0
  0
LINE
  8
0
 62
     0
 10
33.9259
 20
24.0537
 30
0.0
 11
33.9259
 21
22.8534
 31
0.0
  0
LINE
  8
0
 62
     0
 10
33.9259
 20
22.8534
 30
0.0
 11
37.0762
 21
22.8534
 31
0.0
  0
LINE
  8
0
 62
     0
 10
37.0762
 20
22.8534
 30
0.0
 11
37.0762
 21
24.0537
 31
0.0
  0
LINE
  8
0
 62
     0
 10
37.0762
 20
24.0537
 30
0.0
 11
38.8013
 21
24.0537
 31
0.0
  0
LINE
  8
0
 62
     0
 10
38.8013
 20
24.0537
 30
0.0
 11
38.8013
 21
30.3237
 31
0.0
  0
LINE
  8
0
 62
     0
 10
38.8013
 20
30.3237
 30
0.0
 11
39.6254
 21
30.3237
 31
0.0
  0
LINE
  8
0
 62
     0
 10
39.6254
 20
30.3237
 30
0.0
 11
39.6254
 21
32.9737
 31
0.0
  0
LINE
  8
0
 62
     0
 10
39.6254
 20
32.9737
 30
0.0
 11
38.8013
 21
32.9737
 31
0.0
  0
LINE
  8
0
 62
     0
 10
38.8013
 20
32.9737
 30
0.0
 11
38.8013
 21
36.2038
 31
0.0
  0
LINE
  8
0
 62
     0
 10
38.8013
 20
36.2038
 30
0.0
 11
32.2006
 21
36.2038
 31
0.0
  0
LINE
  8
0
 62
     0
 10
32.2006
 20
36.2038
 30
0.0
 11
32.2006
 21
32.9737
 31
0.0
  0
LINE
  8
0
 62
     0
 10
32.2006
 20
32.9737
 30
0.0
 11
30.5263
 21
32.9737
 31
0.0
  0
LINE
  8
0
 62
     0
 10
30.5263
 20
32.9737
 30
0.0
 11
30.5263
 21
37.6742
 31
0.0
  0
LINE
  8
0
 62
     0
 10
30.5263
 20
37.6742
 30
0.0
 11
16.6756
 21
37.6742
 31
0.0
  0
LINE
  8
0
 62
     0
 10
254.801
 20
37.6742
 30
0.0
 11
254.801
 21
32.9737
 31
0.0
  0
LINE
  8
0
 62
     0
 10
254.801
 20
32.9737
 30
0.0
 11
253.126
 21
32.9737
 31
0.0
  0
LINE
  8
0
 62
     0
 10
253.126
 20
32.9737
 30
0.0
 11
253.126
 21
36.2038
 31
0.0
  0
LINE
  8
0
 62
     0
 10
253.126
 20
36.2038
 30
0.0
 11
246.526
 21
36.2038
 31
0.0
  0
LINE
  8
0
 62
     0
 10
246.526
 20
36.2038
 30
0.0
 11
246.526
 21
32.9737
 31
0.0
  0
LINE
  8
0
 62
     0
 10
246.526
 20
32.9737
 30
0.0
 11
245.7
 21
32.9737
 31
0.0
  0
LINE
  8
0
 62
     0
 10
245.7
 20
32.9737
 30
0.0
 11
245.7
 21
30.3237
 31
0.0
  0
LINE
  8
0
 62
     0
 10
245.7
 20
30.3237
 30
0.0
 11
246.526
 21
30.3237
 31
0.0
  0
LINE
  8
0
 62
     0
 10
246.526
 20
30.3237
 30
0.0
 11
246.526
 21
24.0537
 31
0.0
  0
LINE
  8
0
 62
     0
 10
246.526
 20
24.0537
 30
0.0
 11
248.251
 21
24.0537
 31
0.0
  0
LINE
  8
0
 62
     0
 10
248.251
 20
24.0537
 30
0.0
 11
248.251
 21
22.8534
 31
0.0
  0
LINE
  8
0
 62
     0
 10
248.251
 20
22.8534
 30
0.0
 11
251.4
 21
22.8534
 31
0.0
  0
LINE
  8
0
 62
     0
 10
251.4
 20
22.8534
 30
0.0
 11
251.4
 21
24.0537
 31
0.0
  0
LINE
  8
0
 62
     0
 10
251.4
 20
24.0537
 30
0.0
 11
253.126
 21
24.0537
 31
0.0
  0
LINE
  8
0
 62
     0
 10
253.126
 20
24.0537
 30
0.0
 11
253.126
 21
28.524
 31
0.0
  0
LINE
  8
0
 62
     0
 10
253.126
 20
28.524
 30
0.0
 11
254.801
 21
28.524
 31
0.0
  0
LINE
  8
0
 62
     0
 10
254.801
 20
28.524
 30
0.0
 11
254.801
 21
23.8235
 31
0.0
  0
LINE
  8
0
 62
     0
 10
254.801
 20
23.8235
 30
0.0
 11
268.651
 21
23.8235
 31
0.0
  0
LINE
  8
0
 62
     0
 10
268.651
 20
23.8235
 30
0.0
 11
268.651
 21
28.524
 31
0.0
  0
LINE
  8
0
 62
     0
 10
268.651
 20
28.524
 30
0.0
 11
270.325
 21
28.524
 31
0.0
  0
LINE
  8
0
 62
     0
 10
270.325
 20
28.524
 30
0.0
 11
270.325
 21
24.0537
 31
0.0
  0
LINE
  8
0
 62
     0
 10
270.325
 20
24.0537
 30
0.0
 11
272.051
 21
24.0537
 31
0.0
  0
LINE
  8
0
 62
     0
 10
272.051
 20
24.0537
 30
0.0
 11
272.051
 21
22.8534
 31
0.0
  0
LINE
  8
0
 62
     0
 10
272.051
 20
22.8534
 30
0.0
 11
275.201
 21
22.8534
 31
0.0
  0
LINE
  8
0
 62
     0
 10
275.201
 20
22.8534
 30
0.0
 11
275.201
 21
24.0537
 31
0.0
  0
LINE
  8
0
 62
     0
 10
275.201
 20
24.0537
 30
0.0
 11
276.926
 21
24.0537
 31
0.0
  0
LINE
  8
0
 62
     0
 10
276.926
 20
24.0537
 30
0.0
 11
276.926
 21
30.3237
 31
0.0
  0
LINE
  8
0
 62
     0
 10
276.926
 20
30.3237
 30
0.0
 11
277.75
 21
30.3237
 31
0.0
  0
LINE
  8
0
 62
     0
 10
277.75
 20
30.3237
 30
0.0
 11
277.75
 21
32.9737
 31
0.0
  0
LINE
  8
0
 62
     0
 10
277.75
 20
32.9737
 30
0.0
 11
276.926
 21
32.9737
 31
0.0
  0
LINE
  8
0
 62
     0
 10
276.926
 20
32.9737
 30
0.0
 11
276.926
 21
36.2038
 31
0.0
  0
LINE
  8
0
 62
     0
 10
276.926
 20
36.2038
 30
0.0
 11
270.325
 21
36.2038
 31
0.0
  0
LINE
  8
0
 62
     0
 10
270.325
 20
36.2038
 30
0.0
 11
270.325
 21
32.9737
 31
0.0
  0
LINE
  8
0
 62
     0
 10
270.325
 20
32.9737
 30
0.0
 11
268.651
 21
32.9737
 31
0.0
  0
LINE
  8
0
 62
     0
 10
268.651
 20
32.9737
 30
0.0
 11
268.651
 21
37.6742
 31
0.0
  0
LINE
  8
0
 62
     0
 10
268.651
 20
37.6742
 30
0.0
 11
254.801
 21
37.6742
 31
0.0
  0
LINE
  8
0
 62
     0
 10
47.6321
 20
37.6742
 30
0.0
 11
61.4811
 21
37.6742
 31
0.0
  0
LINE
  8
0
 62
     0
 10
61.4811
 20
37.6742
 30
0.0
 11
61.4811
 21
23.8235
 31
0.0
  0
LINE
  8
0
 62
     0
 10
61.4811
 20
23.8235
 30
0.0
 11
47.6321
 21
23.8235
 31
0.0
  0
LINE
  8
0
 62
     0
 10
47.6321
 20
23.8235
 30
0.0
 11
47.6321
 21
37.6742
 31
0.0
  0
LINE
  8
0
 62
     0
 10
66.6821
 20
37.6742
 30
0.0
 11
80.5311
 21
37.6742
 31
0.0
  0
LINE
  8
0
 62
     0
 10
80.5311
 20
37.6742
 30
0.0
 11
80.5311
 21
23.8235
 31
0.0
  0
LINE
  8
0
 62
     0
 10
80.5311
 20
23.8235
 30
0.0
 11
66.6821
 21
23.8235
 31
0.0
  0
LINE
  8
0
 62
     0
 10
66.6821
 20
23.8235
 30
0.0
 11
66.6821
 21
37.6742
 31
0.0
  0
LINE
  8
0
 62
     0
 10
85.7321
 20
37.6742
 30
0.0
 11
99.5811
 21
37.6742
 31
0.0
  0
LINE
  8
0
 62
     0
 10
99.5811
 20
37.6742
 30
0.0
 11
99.5811
 21
23.8235
 31
0.0
  0
LINE
  8
0
 62
     0
 10
99.5811
 20
23.8235
 30
0.0
 11
85.7321
 21
23.8235
 31
0.0
  0
LINE
  8
0
 62
     0
 10
85.7321
 20
23.8235
 30
0.0
 11
85.7321
 21
37.6742
 31
0.0
  0
LINE
  8
0
 62
     0
 10
104.782
 20
37.6742
 30
0.0
 11
118.631
 21
37.6742
 31
0.0
  0
LINE
  8
0
 62
     0
 10
118.631
 20
37.6742
 30
0.0
 11
118.631
 21
23.8235
 31
0.0
  0
LINE
  8
0
 62
     0
 10
118.631
 20
23.8235
 30
0.0
 11
104.782
 21
23.8235
 31
0.0
  0
LINE
  8
0
 62
     0
 10
104.782
 20
23.8235
 30
0.0
 11
104.782
 21
37.6742
 31
0.0
  0
LINE
  8
0
 62
     0
 10
123.832
 20
37.6742
 30
0.0
 11
137.681
 21
37.6742
 31
0.0
  0
LINE
  8
0
 62
     0
 10
137.681
 20
37.6742
 30
0.0
 11
137.681
 21
23.8235
 31
0.0
  0
LINE
  8
0
 62
     0
 10
137.681
 20
23.8235
 30
0.0
 11
123.832
 21
23.8235
 31
0.0
  0
LINE
  8
0
 62
     0
 10
123.832
 20
23.8235
 30
0.0
 11
123.832
 21
37.6742
 31
0.0
  0
LINE
  8
0
 62
     0
 10
142.882
 20
37.6742
 30
0.0
 11
156.731
 21
37.6742
 31
0.0
  0
LINE
  8
0
 62
     0
 10
156.731
 20
37.6742
 30
0.0
 11
156.731
 21
23.8235
 31
0.0
  0
LINE
  8
0
 62
     0
 10
156.731
 20
23.8235
 30
0.0
 11
142.882
 21
23.8235
 31
0.0
  0
LINE
  8
0
 62
     0
 10
142.882
 20
23.8235
 30
0.0
 11
142.882
 21
37.6742
 31
0.0
  0
LINE
  8
0
 62
     0
 10
161.932
 20
37.6742
 30
0.0
 11
175.781
 21
37.6742
 31
0.0
  0
LINE
  8
0
 62
     0
 10
175.781
 20
37.6742
 30
0.0
 11
175.781
 21
23.8235
 31
0.0
  0
LINE
  8
0
 62
     0
 10
175.781
 20
23.8235
 30
0.0
 11
161.932
 21
23.8235
 31
0.0
  0
LINE
  8
0
 62
     0
 10
161.932
 20
23.8235
 30
0.0
 11
161.932
 21
37.6742
 31
0.0
  0
LINE
  8
0
 62
     0
 10
180.982
 20
37.6742
 30
0.0
 11
194.831
 21
37.6742
 31
0.0
  0
LINE
  8
0
 62
     0
 10
194.831
 20
37.6742
 30
0.0
 11
194.831
 21
23.8235
 31
0.0
  0
LINE
  8
0
 62
     0
 10
194.831
 20
23.8235
 30
0.0
 11
180.982
 21
23.8235
 31
0.0
  0
LINE
  8
0
 62
     0
 10
180.982
 20
23.8235
 30
0.0
 11
180.982
 21
37.6742
 31
0.0
  0
LINE
  8
0
 62
     0
 10
200.032
 20
37.6742
 30
0.0
 11
213.881
 21
37.6742
 31
0.0
  0
LINE
  8
0
 62
     0
 10
213.881
 20
37.6742
 30
0.0
 11
213.881
 21
23.8235
 31
0.0
  0
LINE
  8
0
 62
     0
 10
213.881
 20
23.8235
 30
0.0
 11
200.032
 21
23.8235
 31
0.0
  0
LINE
  8
0
 62
     0
 10
200.032
 20
23.8235
 30
0.0
 11
200.032
 21
37.6742
 31
0.0
  0
LINE
  8
0
 62
     0
 10
219.082
 20
37.6742
 30
0.0
 11
232.931
 21
37.6742
 31
0.0
  0
LINE
  8
0
 62
     0
 10
232.931
 20
37.6742
 30
0.0
 11
232.931
 21
23.8235
 31
0.0
  0
LINE
  8
0
 62
     0
 10
232.931
 20
23.8235
 30
0.0
 11
219.082
 21
23.8235
 31
0.0
  0
LINE
  8
0
 62
     0
 10
219.082
 20
23.8235
 30
0.0
 11
219.082
 21
37.6742
 31
0.0
  0
LINE
  8
0
 62
     0
 10
314.332
 20
37.6742
 30
0.0
 11
328.181
 21
37.6742
 31
0.0
  0
LINE
  8
0
 62
     0
 10
328.181
 20
37.6742
 30
0.0
 11
328.181
 21
23.8235
 31
0.0
  0
LINE
  8
0
 62
     0
 10
328.181
 20
23.8235
 30
0.0
 11
314.332
 21
23.8235
 31
0.0
  0
LINE
  8
0
 62
     0
 10
314.332
 20
23.8235
 30
0.0
 11
314.332
 21
37.6742
 31
0.0
  0
LINE
  8
0
 62
     0
 10
11.9131
 20
56.7242
 30
0.0
 11
25.7624
 21
56.7242
 31
0.0
  0
LINE
  8
0
 62
     0
 10
25.7624
 20
56.7242
 30
0.0
 11
25.7624
 21
42.8734
 31
0.0
  0
LINE
  8
0
 62
     0
 10
25.7624
 20
42.8734
 30
0.0
 11
11.9131
 21
42.8734
 31
0.0
  0
LINE
  8
0
 62
     0
 10
11.9131
 20
42.8734
 30
0.0
 11
11.9131
 21
56.7242
 31
0.0
  0
LINE
  8
0
 62
     0
 10
38.1071
 20
56.7242
 30
0.0
 11
51.9561
 21
56.7242
 31
0.0
  0
LINE
  8
0
 62
     0
 10
51.9561
 20
56.7242
 30
0.0
 11
51.9561
 21
42.8734
 31
0.0
  0
LINE
  8
0
 62
     0
 10
51.9561
 20
42.8734
 30
0.0
 11
38.1071
 21
42.8734
 31
0.0
  0
LINE
  8
0
 62
     0
 10
38.1071
 20
42.8734
 30
0.0
 11
38.1071
 21
56.7242
 31
0.0
  0
LINE
  8
0
 62
     0
 10
57.1571
 20
56.7242
 30
0.0
 11
71.0061
 21
56.7242
 31
0.0
  0
LINE
  8
0
 62
     0
 10
71.0061
 20
56.7242
 30
0.0
 11
71.0061
 21
42.8734
 31
0.0
  0
LINE
  8
0
 62
     0
 10
71.0061
 20
42.8734
 30
0.0
 11
57.1571
 21
42.8734
 31
0.0
  0
LINE
  8
0
 62
     0
 10
57.1571
 20
42.8734
 30
0.0
 11
57.1571
 21
56.7242
 31
0.0
  0
LINE
  8
0
 62
     0
 10
76.2071
 20
56.7242
 30
0.0
 11
90.0561
 21
56.7242
 31
0.0
  0
LINE
  8
0
 62
     0
 10
90.0561
 20
56.7242
 30
0.0
 11
90.0561
 21
42.8734
 31
0.0
  0
LINE
  8
0
 62
     0
 10
90.0561
 20
42.8734
 30
0.0
 11
76.2071
 21
42.8734
 31
0.0
  0
LINE
  8
0
 62
     0
 10
76.2071
 20
42.8734
 30
0.0
 11
76.2071
 21
56.7242
 31
0.0
  0
LINE
  8
0
 62
     0
 10
95.2571
 20
56.7242
 30
0.0
 11
109.106
 21
56.7242
 31
0.0
  0
LINE
  8
0
 62
     0
 10
109.106
 20
56.7242
 30
0.0
 11
109.106
 21
42.8734
 31
0.0
  0
LINE
  8
0
 62
     0
 10
109.106
 20
42.8734
 30
0.0
 11
95.2571
 21
42.8734
 31
0.0
  0
LINE
  8
0
 62
     0
 10
95.2571
 20
42.8734
 30
0.0
 11
95.2571
 21
56.7242
 31
0.0
  0
LINE
  8
0
 62
     0
 10
114.307
 20
56.7242
 30
0.0
 11
128.156
 21
56.7242
 31
0.0
  0
LINE
  8
0
 62
     0
 10
128.156
 20
56.7242
 30
0.0
 11
128.156
 21
42.8734
 31
0.0
  0
LINE
  8
0
 62
     0
 10
128.156
 20
42.8734
 30
0.0
 11
114.307
 21
42.8734
 31
0.0
  0
LINE
  8
0
 62
     0
 10
114.307
 20
42.8734
 30
0.0
 11
114.307
 21
56.7242
 31
0.0
  0
LINE
  8
0
 62
     0
 10
133.357
 20
56.7242
 30
0.0
 11
147.206
 21
56.7242
 31
0.0
  0
LINE
  8
0
 62
     0
 10
147.206
 20
56.7242
 30
0.0
 11
147.206
 21
42.8734
 31
0.0
  0
LINE
  8
0
 62
     0
 10
147.206
 20
42.8734
 30
0.0
 11
133.357
 21
42.8734
 31
0.0
  0
LINE
  8
0
 62
     0
 10
133.357
 20
42.8734
 30
0.0
 11
133.357
 21
56.7242
 31
0.0
  0
LINE
  8
0
 62
     0
 10
152.407
 20
56.7242
 30
0.0
 11
166.256
 21
56.7242
 31
0.0
  0
LINE
  8
0
 62
     0
 10
166.256
 20
56.7242
 30
0.0
 11
166.256
 21
42.8734
 31
0.0
  0
LINE
  8
0
 62
     0
 10
166.256
 20
42.8734
 30
0.0
 11
152.407
 21
42.8734
 31
0.0
  0
LINE
  8
0
 62
     0
 10
152.407
 20
42.8734
 30
0.0
 11
152.407
 21
56.7242
 31
0.0
  0
LINE
  8
0
 62
     0
 10
171.457
 20
56.7242
 30
0.0
 11
185.306
 21
56.7242
 31
0.0
  0
LINE
  8
0
 62
     0
 10
185.306
 20
56.7242
 30
0.0
 11
185.306
 21
42.8734
 31
0.0
  0
LINE
  8
0
 62
     0
 10
185.306
 20
42.8734
 30
0.0
 11
171.457
 21
42.8734
 31
0.0
  0
LINE
  8
0
 62
     0
 10
171.457
 20
42.8734
 30
0.0
 11
171.457
 21
56.7242
 31
0.0
  0
LINE
  8
0
 62
     0
 10
190.507
 20
56.7242
 30
0.0
 11
204.356
 21
56.7242
 31
0.0
  0
LINE
  8
0
 62
     0
 10
204.356
 20
56.7242
 30
0.0
 11
204.356
 21
42.8734
 31
0.0
  0
LINE
  8
0
 62
     0
 10
204.356
 20
42.8734
 30
0.0
 11
190.507
 21
42.8734
 31
0.0
  0
LINE
  8
0
 62
     0
 10
190.507
 20
42.8734
 30
0.0
 11
190.507
 21
56.7242
 31
0.0
  0
LINE
  8
0
 62
     0
 10
209.557
 20
56.7242
 30
0.0
 11
223.406
 21
56.7242
 31
0.0
  0
LINE
  8
0
 62
     0
 10
223.406
 20
56.7242
 30
0.0
 11
223.406
 21
42.8734
 31
0.0
  0
LINE
  8
0
 62
     0
 10
223.406
 20
42.8734
 30
0.0
 11
209.557
 21
42.8734
 31
0.0
  0
LINE
  8
0
 62
     0
 10
209.557
 20
42.8734
 30
0.0
 11
209.557
 21
56.7242
 31
0.0
  0
LINE
  8
0
 62
     0
 10
228.607
 20
56.7242
 30
0.0
 11
242.456
 21
56.7242
 31
0.0
  0
LINE
  8
0
 62
     0
 10
242.456
 20
56.7242
 30
0.0
 11
242.456
 21
42.8734
 31
0.0
  0
LINE
  8
0
 62
     0
 10
242.456
 20
42.8734
 30
0.0
 11
228.607
 21
42.8734
 31
0.0
  0
LINE
  8
0
 62
     0
 10
228.607
 20
42.8734
 30
0.0
 11
228.607
 21
56.7242
 31
0.0
  0
LINE
  8
0
 62
     0
 10
247.657
 20
56.7242
 30
0.0
 11
261.506
 21
56.7242
 31
0.0
  0
LINE
  8
0
 62
     0
 10
261.506
 20
56.7242
 30
0.0
 11
261.506
 21
42.8734
 31
0.0
  0
LINE
  8
0
 62
     0
 10
261.506
 20
42.8734
 30
0.0
 11
247.657
 21
42.8734
 31
0.0
  0
LINE
  8
0
 62
     0
 10
247.657
 20
42.8734
 30
0.0
 11
247.657
 21
56.7242
 31
0.0
  0
LINE
  8
0
 62
     0
 10
275.588
 20
75.3484
 30
0.0
 11
275.588
 21
74.5243
 31
0.0
  0
LINE
  8
0
 62
     0
 10
275.588
 20
74.5243
 30
0.0
 11
269.318
 21
74.5243
 31
0.0
  0
LINE
  8
0
 62
     0
 10
269.318
 20
74.5243
 30
0.0
 11
269.318
 21
72.7989
 31
0.0
  0
LINE
  8
0
 62
     0
 10
269.318
 20
72.7989
 30
0.0
 11
268.118
 21
72.7989
 31
0.0
  0
LINE
  8
0
 62
     0
 10
268.118
 20
72.7989
 30
0.0
 11
268.118
 21
69.6489
 31
0.0
  0
LINE
  8
0
 62
     0
 10
268.118
 20
69.6489
 30
0.0
 11
269.318
 21
69.6489
 31
0.0
  0
LINE
  8
0
 62
     0
 10
269.318
 20
69.6489
 30
0.0
 11
269.318
 21
67.9235
 31
0.0
  0
LINE
  8
0
 62
     0
 10
269.318
 20
67.9235
 30
0.0
 11
273.787
 21
67.9235
 31
0.0
  0
LINE
  8
0
 62
     0
 10
273.787
 20
67.9235
 30
0.0
 11
273.787
 21
66.2492
 31
0.0
  0
LINE
  8
0
 62
     0
 10
273.787
 20
66.2492
 30
0.0
 11
269.088
 21
66.2492
 31
0.0
  0
LINE
  8
0
 62
     0
 10
269.088
 20
66.2492
 30
0.0
 11
269.088
 21
52.3984
 31
0.0
  0
LINE
  8
0
 62
     0
 10
269.088
 20
52.3984
 30
0.0
 11
273.787
 21
52.3984
 31
0.0
  0
LINE
  8
0
 62
     0
 10
273.787
 20
52.3984
 30
0.0
 11
273.787
 21
50.7242
 31
0.0
  0
LINE
  8
0
 62
     0
 10
273.787
 20
50.7242
 30
0.0
 11
269.318
 21
50.7242
 31
0.0
  0
LINE
  8
0
 62
     0
 10
269.318
 20
50.7242
 30
0.0
 11
269.318
 21
48.9991
 31
0.0
  0
LINE
  8
0
 62
     0
 10
269.318
 20
48.9991
 30
0.0
 11
268.118
 21
48.9991
 31
0.0
  0
LINE
  8
0
 62
     0
 10
268.118
 20
48.9991
 30
0.0
 11
268.118
 21
45.8488
 31
0.0
  0
LINE
  8
0
 62
     0
 10
268.118
 20
45.8488
 30
0.0
 11
269.318
 21
45.8488
 31
0.0
  0
LINE
  8
0
 62
     0
 10
269.318
 20
45.8488
 30
0.0
 11
269.318
 21
44.1233
 31
0.0
  0
LINE
  8
0
 62
     0
 10
269.318
 20
44.1233
 30
0.0
 11
275.588
 21
44.1233
 31
0.0
  0
LINE
  8
0
 62
     0
 10
275.588
 20
44.1233
 30
0.0
 11
275.588
 21
43.2992
 31
0.0
  0
LINE
  8
0
 62
     0
 10
275.588
 20
43.2992
 30
0.0
 11
278.238
 21
43.2992
 31
0.0
  0
LINE
  8
0
 62
     0
 10
278.238
 20
43.2992
 30
0.0
 11
278.238
 21
44.1233
 31
0.0
  0
LINE
  8
0
 62
     0
 10
278.238
 20
44.1233
 30
0.0
 11
281.467
 21
44.1233
 31
0.0
  0
LINE
  8
0
 62
     0
 10
281.467
 20
44.1233
 30
0.0
 11
281.467
 21
50.7242
 31
0.0
  0
LINE
  8
0
 62
     0
 10
281.467
 20
50.7242
 30
0.0
 11
278.238
 21
50.7242
 31
0.0
  0
LINE
  8
0
 62
     0
 10
278.238
 20
50.7242
 30
0.0
 11
278.238
 21
52.3984
 31
0.0
  0
LINE
  8
0
 62
     0
 10
278.238
 20
52.3984
 30
0.0
 11
282.937
 21
52.3984
 31
0.0
  0
LINE
  8
0
 62
     0
 10
282.937
 20
52.3984
 30
0.0
 11
282.937
 21
66.2492
 31
0.0
  0
LINE
  8
0
 62
     0
 10
282.937
 20
66.2492
 30
0.0
 11
278.238
 21
66.2492
 31
0.0
  0
LINE
  8
0
 62
     0
 10
278.238
 20
66.2492
 30
0.0
 11
278.238
 21
67.9235
 31
0.0
  0
LINE
  8
0
 62
     0
 10
278.238
 20
67.9235
 30
0.0
 11
281.467
 21
67.9235
 31
0.0
  0
LINE
  8
0
 62
     0
 10
281.467
 20
67.9235
 30
0.0
 11
281.467
 21
74.5243
 31
0.0
  0
LINE
  8
0
 62
     0
 10
281.467
 20
74.5243
 30
0.0
 11
278.238
 21
74.5243
 31
0.0
  0
LINE
  8
0
 62
     0
 10
278.238
 20
74.5243
 30
0.0
 11
278.238
 21
75.3484
 31
0.0
  0
LINE
  8
0
 62
     0
 10
278.238
 20
75.3484
 30
0.0
 11
275.588
 21
75.3484
 31
0.0
  0
LINE
  8
0
 62
     0
 10
9.53188
 20
75.7742
 30
0.0
 11
23.3812
 21
75.7742
 31
0.0
  0
LINE
  8
0
 62
     0
 10
23.3812
 20
75.7742
 30
0.0
 11
23.3812
 21
61.9234
 31
0.0
  0
LINE
  8
0
 62
     0
 10
23.3812
 20
61.9234
 30
0.0
 11
9.53188
 21
61.9234
 31
0.0
  0
LINE
  8
0
 62
     0
 10
9.53188
 20
61.9234
 30
0.0
 11
9.53188
 21
75.7742
 31
0.0
  0
LINE
  8
0
 62
     0
 10
33.3444
 20
75.7742
 30
0.0
 11
47.1936
 21
75.7742
 31
0.0
  0
LINE
  8
0
 62
     0
 10
47.1936
 20
75.7742
 30
0.0
 11
47.1936
 21
61.9234
 31
0.0
  0
LINE
  8
0
 62
     0
 10
47.1936
 20
61.9234
 30
0.0
 11
33.3444
 21
61.9234
 31
0.0
  0
LINE
  8
0
 62
     0
 10
33.3444
 20
61.9234
 30
0.0
 11
33.3444
 21
75.7742
 31
0.0
  0
LINE
  8
0
 62
     0
 10
52.3946
 20
75.7742
 30
0.0
 11
66.2436
 21
75.7742
 31
0.0
  0
LINE
  8
0
 62
     0
 10
66.2436
 20
75.7742
 30
0.0
 11
66.2436
 21
61.9234
 31
0.0
  0
LINE
  8
0
 62
     0
 10
66.2436
 20
61.9234
 30
0.0
 11
52.3946
 21
61.9234
 31
0.0
  0
LINE
  8
0
 62
     0
 10
52.3946
 20
61.9234
 30
0.0
 11
52.3946
 21
75.7742
 31
0.0
  0
LINE
  8
0
 62
     0
 10
71.4446
 20
75.7742
 30
0.0
 11
85.2936
 21
75.7742
 31
0.0
  0
LINE
  8
0
 62
     0
 10
85.2936
 20
75.7742
 30
0.0
 11
85.2936
 21
61.9234
 31
0.0
  0
LINE
  8
0
 62
     0
 10
85.2936
 20
61.9234
 30
0.0
 11
71.4446
 21
61.9234
 31
0.0
  0
LINE
  8
0
 62
     0
 10
71.4446
 20
61.9234
 30
0.0
 11
71.4446
 21
75.7742
 31
0.0
  0
LINE
  8
0
 62
     0
 10
90.4946
 20
75.7742
 30
0.0
 11
104.344
 21
75.7742
 31
0.0
  0
LINE
  8
0
 62
     0
 10
104.344
 20
75.7742
 30
0.0
 11
104.344
 21
61.9234
 31
0.0
  0
LINE
  8
0
 62
     0
 10
104.344
 20
61.9234
 30
0.0
 11
90.4946
 21
61.9234
 31
0.0
  0
LINE
  8
0
 62
     0
 10
90.4946
 20
61.9234
 30
0.0
 11
90.4946
 21
75.7742
 31
0.0
  0
LINE
  8
0
 62
     0
 10
109.545
 20
75.7742
 30
0.0
 11
123.394
 21
75.7742
 31
0.0
  0
LINE
  8
0
 62
     0
 10
123.394
 20
75.7742
 30
0.0
 11
123.394
 21
61.9234
 31
0.0
  0
LINE
  8
0
 62
     0
 10
123.394
 20
61.9234
 30
0.0
 11
109.545
 21
61.9234
 31
0.0
  0
LINE
  8
0
 62
     0
 10
109.545
 20
61.9234
 30
0.0
 11
109.545
 21
75.7742
 31
0.0
  0
LINE
  8
0
 62
     0
 10
128.595
 20
75.7742
 30
0.0
 11
142.445
 21
75.7742
 31
0.0
  0
LINE
  8
0
 62
     0
 10
142.445
 20
75.7742
 30
0.0
 11
142.445
 21
61.9234
 31
0.0
  0
LINE
  8
0
 62
     0
 10
142.445
 20
61.9234
 30
0.0
 11
128.595
 21
61.9234
 31
0.0
  0
LINE
  8
0
 62
     0
 10
128.595
 20
61.9234
 30
0.0
 11
128.595
 21
75.7742
 31
0.0
  0
LINE
  8
0
 62
     0
 10
147.645
 20
75.7742
 30
0.0
 11
161.495
 21
75.7742
 31
0.0
  0
LINE
  8
0
 62
     0
 10
161.495
 20
75.7742
 30
0.0
 11
161.495
 21
61.9234
 31
0.0
  0
LINE
  8
0
 62
     0
 10
161.495
 20
61.9234
 30
0.0
 11
147.645
 21
61.9234
 31
0.0
  0
LINE
  8
0
 62
     0
 10
147.645
 20
61.9234
 30
0.0
 11
147.645
 21
75.7742
 31
0.0
  0
LINE
  8
0
 62
     0
 10
166.695
 20
75.7742
 30
0.0
 11
180.545
 21
75.7742
 31
0.0
  0
LINE
  8
0
 62
     0
 10
180.545
 20
75.7742
 30
0.0
 11
180.545
 21
61.9234
 31
0.0
  0
LINE
  8
0
 62
     0
 10
180.545
 20
61.9234
 30
0.0
 11
166.695
 21
61.9234
 31
0.0
  0
LINE
  8
0
 62
     0
 10
166.695
 20
61.9234
 30
0.0
 11
166.695
 21
75.7742
 31
0.0
  0
LINE
  8
0
 62
     0
 10
185.745
 20
75.7742
 30
0.0
 11
199.595
 21
75.7742
 31
0.0
  0
LINE
  8
0
 62
     0
 10
199.595
 20
75.7742
 30
0.0
 11
199.595
 21
61.9234
 31
0.0
  0
LINE
  8
0
 62
     0
 10
199.595
 20
61.9234
 30
0.0
 11
185.745
 21
61.9234
 31
0.0
  0
LINE
  8
0
 62
     0
 10
185.745
 20
61.9234
 30
0.0
 11
185.745
 21
75.7742
 31
0.0
  0
LINE
  8
0
 62
     0
 10
204.795
 20
75.7742
 30
0.0
 11
218.645
 21
75.7742
 31
0.0
  0
LINE
  8
0
 62
     0
 10
218.645
 20
75.7742
 30
0.0
 11
218.645
 21
61.9234
 31
0.0
  0
LINE
  8
0
 62
     0
 10
218.645
 20
61.9234
 30
0.0
 11
204.795
 21
61.9234
 31
0.0
  0
LINE
  8
0
 62
     0
 10
204.795
 20
61.9234
 30
0.0
 11
204.795
 21
75.7742
 31
0.0
  0
LINE
  8
0
 62
     0
 10
223.845
 20
75.7742
 30
0.0
 11
237.695
 21
75.7742
 31
0.0
  0
LINE
  8
0
 62
     0
 10
237.695
 20
75.7742
 30
0.0
 11
237.695
 21
61.9234
 31
0.0
  0
LINE
  8
0
 62
     0
 10
237.695
 20
61.9234
 30
0.0
 11
223.845
 21
61.9234
 31
0.0
  0
LINE
  8
0
 62
     0
 10
223.845
 20
61.9234
 30
0.0
 11
223.845
 21
75.7742
 31
0.0
  0
LINE
  8
0
 62
     0
 10
242.895
 20
75.7742
 30
0.0
 11
256.744
 21
75.7742
 31
0.0
  0
LINE
  8
0
 62
     0
 10
256.744
 20
75.7742
 30
0.0
 11
256.744
 21
61.9234
 31
0.0
  0
LINE
  8
0
 62
     0
 10
256.744
 20
61.9234
 30
0.0
 11
242.895
 21
61.9234
 31
0.0
  0
LINE
  8
0
 62
     0
 10
242.895
 20
61.9234
 30
0.0
 11
242.895
 21
75.7742
 31
0.0
  0
LINE
  8
0
 62
     0
 10
295.282
 20
75.7742
 30
0.0
 11
309.131
 21
75.7742
 31
0.0
  0
LINE
  8
0
 62
     0
 10
309.131
 20
75.7742
 30
0.0
 11
309.131
 21
61.9234
 31
0.0
  0
LINE
  8
0
 62
     0
 10
309.131
 20
61.9234
 30
0.0
 11
295.282
 21
61.9234
 31
0.0
  0
LINE
  8
0
 62
     0
 10
295.282
 20
61.9234
 30
0.0
 11
295.282
 21
75.7742
 31
0.0
  0
LINE
  8
0
 62
     0
 10
314.332
 20
75.7742
 30
0.0
 11
328.181
 21
75.7742
 31
0.0
  0
LINE
  8
0
 62
     0
 10
328.181
 20
75.7742
 30
0.0
 11
328.181
 21
61.9234
 31
0.0
  0
LINE
  8
0
 62
     0
 10
328.181
 20
61.9234
 30
0.0
 11
314.332
 21
61.9234
 31
0.0
  0
LINE
  8
0
 62
     0
 10
314.332
 20
61.9234
 30
0.0
 11
314.332
 21
75.7742
 31
0.0
  0
LINE
  8
0
 62
     0
 10
333.382
 20
75.7742
 30
0.0
 11
347.231
 21
75.7742
 31
0.0
  0
LINE
  8
0
 62
     0
 10
347.231
 20
75.7742
 30
0.0
 11
347.231
 21
61.9234
 31
0.0
  0
LINE
  8
0
 62
     0
 10
347.231
 20
61.9234
 30
0.0
 11
333.382
 21
61.9234
 31
0.0
  0
LINE
  8
0
 62
     0
 10
333.382
 20
61.9234
 30
0.0
 11
333.382
 21
75.7742
 31
0.0
  0
LINE
  8
0
 62
     0
 10
261.945
 20
94.8242
 30
0.0
 11
261.945
 21
90.1238
 31
0.0
  0
LINE
  8
0
 62
     0
 10
261.945
 20
90.1238
 30
0.0
 11
260.27
 21
90.1238
 31
0.0
  0
LINE
  8
0
 62
     0
 10
260.27
 20
90.1238
 30
0.0
 11
260.27
 21
93.3538
 31
0.0
  0
LINE
  8
0
 62
     0
 10
260.27
 20
93.3538
 30
0.0
 11
253.669
 21
93.3538
 31
0.0
  0
LINE
  8
0
 62
     0
 10
253.669
 20
93.3538
 30
0.0
 11
253.669
 21
90.1238
 31
0.0
  0
LINE
  8
0
 62
     0
 10
253.669
 20
90.1238
 30
0.0
 11
252.845
 21
90.1238
 31
0.0
  0
LINE
  8
0
 62
     0
 10
252.845
 20
90.1238
 30
0.0
 11
252.845
 21
87.4737
 31
0.0
  0
LINE
  8
0
 62
     0
 10
252.845
 20
87.4737
 30
0.0
 11
253.669
 21
87.4737
 31
0.0
  0
LINE
  8
0
 62
     0
 10
253.669
 20
87.4737
 30
0.0
 11
253.669
 21
81.2038
 31
0.0
  0
LINE
  8
0
 62
     0
 10
253.669
 20
81.2038
 30
0.0
 11
255.395
 21
81.2038
 31
0.0
  0
LINE
  8
0
 62
     0
 10
255.395
 20
81.2038
 30
0.0
 11
255.395
 21
80.0033
 31
0.0
  0
LINE
  8
0
 62
     0
 10
255.395
 20
80.0033
 30
0.0
 11
258.545
 21
80.0033
 31
0.0
  0
LINE
  8
0
 62
     0
 10
258.545
 20
80.0033
 30
0.0
 11
258.545
 21
81.2038
 31
0.0
  0
LINE
  8
0
 62
     0
 10
258.545
 20
81.2038
 30
0.0
 11
260.27
 21
81.2038
 31
0.0
  0
LINE
  8
0
 62
     0
 10
260.27
 20
81.2038
 30
0.0
 11
260.27
 21
85.6738
 31
0.0
  0
LINE
  8
0
 62
     0
 10
260.27
 20
85.6738
 30
0.0
 11
261.945
 21
85.6738
 31
0.0
  0
LINE
  8
0
 62
     0
 10
261.945
 20
85.6738
 30
0.0
 11
261.945
 21
80.9734
 31
0.0
  0
LINE
  8
0
 62
     0
 10
261.945
 20
80.9734
 30
0.0
 11
275.795
 21
80.9734
 31
0.0
  0
LINE
  8
0
 62
     0
 10
275.795
 20
80.9734
 30
0.0
 11
275.795
 21
85.6738
 31
0.0
  0
LINE
  8
0
 62
     0
 10
275.795
 20
85.6738
 30
0.0
 11
277.469
 21
85.6738
 31
0.0
  0
LINE
  8
0
 62
     0
 10
277.469
 20
85.6738
 30
0.0
 11
277.469
 21
81.2038
 31
0.0
  0
LINE
  8
0
 62
     0
 10
277.469
 20
81.2038
 30
0.0
 11
279.195
 21
81.2038
 31
0.0
  0
LINE
  8
0
 62
     0
 10
279.195
 20
81.2038
 30
0.0
 11
279.195
 21
80.0033
 31
0.0
  0
LINE
  8
0
 62
     0
 10
279.195
 20
80.0033
 30
0.0
 11
282.345
 21
80.0033
 31
0.0
  0
LINE
  8
0
 62
     0
 10
282.345
 20
80.0033
 30
0.0
 11
282.345
 21
81.2038
 31
0.0
  0
LINE
  8
0
 62
     0
 10
282.345
 20
81.2038
 30
0.0
 11
284.07
 21
81.2038
 31
0.0
  0
LINE
  8
0
 62
     0
 10
284.07
 20
81.2038
 30
0.0
 11
284.07
 21
87.4737
 31
0.0
  0
LINE
  8
0
 62
     0
 10
284.07
 20
87.4737
 30
0.0
 11
284.894
 21
87.4737
 31
0.0
  0
LINE
  8
0
 62
     0
 10
284.894
 20
87.4737
 30
0.0
 11
284.894
 21
90.1238
 31
0.0
  0
LINE
  8
0
 62
     0
 10
284.894
 20
90.1238
 30
0.0
 11
284.07
 21
90.1238
 31
0.0
  0
LINE
  8
0
 62
     0
 10
284.07
 20
90.1238
 30
0.0
 11
284.07
 21
93.3538
 31
0.0
  0
LINE
  8
0
 62
     0
 10
284.07
 20
93.3538
 30
0.0
 11
277.469
 21
93.3538
 31
0.0
  0
LINE
  8
0
 62
     0
 10
277.469
 20
93.3538
 30
0.0
 11
277.469
 21
90.1238
 31
0.0
  0
LINE
  8
0
 62
     0
 10
277.469
 20
90.1238
 30
0.0
 11
275.795
 21
90.1238
 31
0.0
  0
LINE
  8
0
 62
     0
 10
275.795
 20
90.1238
 30
0.0
 11
275.795
 21
94.8242
 31
0.0
  0
LINE
  8
0
 62
     0
 10
275.795
 20
94.8242
 30
0.0
 11
261.945
 21
94.8242
 31
0.0
  0
LINE
  8
0
 62
     0
 10
4.76938
 20
94.8242
 30
0.0
 11
18.6201
 21
94.8242
 31
0.0
  0
LINE
  8
0
 62
     0
 10
18.6201
 20
94.8242
 30
0.0
 11
18.6201
 21
80.9734
 31
0.0
  0
LINE
  8
0
 62
     0
 10
18.6201
 20
80.9734
 30
0.0
 11
4.76938
 21
80.9734
 31
0.0
  0
LINE
  8
0
 62
     0
 10
4.76938
 20
80.9734
 30
0.0
 11
4.76938
 21
94.8242
 31
0.0
  0
LINE
  8
0
 62
     0
 10
23.8194
 20
94.8242
 30
0.0
 11
37.67
 21
94.8242
 31
0.0
  0
LINE
  8
0
 62
     0
 10
37.67
 20
94.8242
 30
0.0
 11
37.67
 21
80.9734
 31
0.0
  0
LINE
  8
0
 62
     0
 10
37.67
 20
80.9734
 30
0.0
 11
23.8194
 21
80.9734
 31
0.0
  0
LINE
  8
0
 62
     0
 10
23.8194
 20
80.9734
 30
0.0
 11
23.8194
 21
94.8242
 31
0.0
  0
LINE
  8
0
 62
     0
 10
42.8696
 20
94.8242
 30
0.0
 11
56.72
 21
94.8242
 31
0.0
  0
LINE
  8
0
 62
     0
 10
56.72
 20
94.8242
 30
0.0
 11
56.72
 21
80.9734
 31
0.0
  0
LINE
  8
0
 62
     0
 10
56.72
 20
80.9734
 30
0.0
 11
42.8696
 21
80.9734
 31
0.0
  0
LINE
  8
0
 62
     0
 10
42.8696
 20
80.9734
 30
0.0
 11
42.8696
 21
94.8242
 31
0.0
  0
LINE
  8
0
 62
     0
 10
61.9196
 20
94.8242
 30
0.0
 11
75.77
 21
94.8242
 31
0.0
  0
LINE
  8
0
 62
     0
 10
75.77
 20
94.8242
 30
0.0
 11
75.77
 21
80.9734
 31
0.0
  0
LINE
  8
0
 62
     0
 10
75.77
 20
80.9734
 30
0.0
 11
61.9196
 21
80.9734
 31
0.0
  0
LINE
  8
0
 62
     0
 10
61.9196
 20
80.9734
 30
0.0
 11
61.9196
 21
94.8242
 31
0.0
  0
LINE
  8
0
 62
     0
 10
80.9696
 20
94.8242
 30
0.0
 11
94.82
 21
94.8242
 31
0.0
  0
LINE
  8
0
 62
     0
 10
94.82
 20
94.8242
 30
0.0
 11
94.82
 21
80.9734
 31
0.0
  0
LINE
  8
0
 62
     0
 10
94.82
 20
80.9734
 30
0.0
 11
80.9696
 21
80.9734
 31
0.0
  0
LINE
  8
0
 62
     0
 10
80.9696
 20
80.9734
 30
0.0
 11
80.9696
 21
94.8242
 31
0.0
  0
LINE
  8
0
 62
     0
 10
100.02
 20
94.8242
 30
0.0
 11
113.869
 21
94.8242
 31
0.0
  0
LINE
  8
0
 62
     0
 10
113.869
 20
94.8242
 30
0.0
 11
113.869
 21
80.9734
 31
0.0
  0
LINE
  8
0
 62
     0
 10
113.869
 20
80.9734
 30
0.0
 11
100.02
 21
80.9734
 31
0.0
  0
LINE
  8
0
 62
     0
 10
100.02
 20
80.9734
 30
0.0
 11
100.02
 21
94.8242
 31
0.0
  0
LINE
  8
0
 62
     0
 10
119.07
 20
94.8242
 30
0.0
 11
132.92
 21
94.8242
 31
0.0
  0
LINE
  8
0
 62
     0
 10
132.92
 20
94.8242
 30
0.0
 11
132.92
 21
80.9734
 31
0.0
  0
LINE
  8
0
 62
     0
 10
132.92
 20
80.9734
 30
0.0
 11
119.07
 21
80.9734
 31
0.0
  0
LINE
  8
0
 62
     0
 10
119.07
 20
80.9734
 30
0.0
 11
119.07
 21
94.8242
 31
0.0
  0
LINE
  8
0
 62
     0
 10
138.12
 20
94.8242
 30
0.0
 11
151.97
 21
94.8242
 31
0.0
  0
LINE
  8
0
 62
     0
 10
151.97
 20
94.8242
 30
0.0
 11
151.97
 21
80.9734
 31
0.0
  0
LINE
  8
0
 62
     0
 10
151.97
 20
80.9734
 30
0.0
 11
138.12
 21
80.9734
 31
0.0
  0
LINE
  8
0
 62
     0
 10
138.12
 20
80.9734
 30
0.0
 11
138.12
 21
94.8242
 31
0.0
  0
LINE
  8
0
 62
     0
 10
157.17
 20
94.8242
 30
0.0
 11
171.02
 21
94.8242
 31
0.0
  0
LINE
  8
0
 62
     0
 10
171.02
 20
94.8242
 30
0.0
 11
171.02
 21
80.9734
 31
0.0
  0
LINE
  8
0
 62
     0
 10
171.02
 20
80.9734
 30
0.0
 11
157.17
 21
80.9734
 31
0.0
  0
LINE
  8
0
 62
     0
 10
157.17
 20
80.9734
 30
0.0
 11
157.17
 21
94.8242
 31
0.0
  0
LINE
  8
0
 62
     0
 10
176.22
 20
94.8242
 30
0.0
 11
190.07
 21
94.8242
 31
0.0
  0
LINE
  8
0
 62
     0
 10
190.07
 20
94.8242
 30
0.0
 11
190.07
 21
80.9734
 31
0.0
  0
LINE
  8
0
 62
     0
 10
190.07
 20
80.9734
 30
0.0
 11
176.22
 21
80.9734
 31
0.0
  0
LINE
  8
0
 62
     0
 10
176.22
 20
80.9734
 30
0.0
 11
176.22
 21
94.8242
 31
0.0
  0
LINE
  8
0
 62
     0
 10
195.27
 20
94.8242
 30
0.0
 11
209.12
 21
94.8242
 31
0.0
  0
LINE
  8
0
 62
     0
 10
209.12
 20
94.8242
 30
0.0
 11
209.12
 21
80.9734
 31
0.0
  0
LINE
  8
0
 62
     0
 10
209.12
 20
80.9734
 30
0.0
 11
195.27
 21
80.9734
 31
0.0
  0
LINE
  8
0
 62
     0
 10
195.27
 20
80.9734
 30
0.0
 11
195.27
 21
94.8242
 31
0.0
  0
LINE
  8
0
 62
     0
 10
214.32
 20
94.8242
 30
0.0
 11
228.17
 21
94.8242
 31
0.0
  0
LINE
  8
0
 62
     0
 10
228.17
 20
94.8242
 30
0.0
 11
228.17
 21
80.9734
 31
0.0
  0
LINE
  8
0
 62
     0
 10
228.17
 20
80.9734
 30
0.0
 11
214.32
 21
80.9734
 31
0.0
  0
LINE
  8
0
 62
     0
 10
214.32
 20
80.9734
 30
0.0
 11
214.32
 21
94.8242
 31
0.0
  0
LINE
  8
0
 62
     0
 10
233.37
 20
94.8242
 30
0.0
 11
247.22
 21
94.8242
 31
0.0
  0
LINE
  8
0
 62
     0
 10
247.22
 20
94.8242
 30
0.0
 11
247.22
 21
80.9734
 31
0.0
  0
LINE
  8
0
 62
     0
 10
247.22
 20
80.9734
 30
0.0
 11
233.37
 21
80.9734
 31
0.0
  0
LINE
  8
0
 62
     0
 10
233.37
 20
80.9734
 30
0.0
 11
233.37
 21
94.8242
 31
0.0
  0
LINE
  8
0
 62
     0
 10
295.282
 20
94.8242
 30
0.0
 11
309.131
 21
94.8242
 31
0.0
  0
LINE
  8
0
 62
     0
 10
309.131
 20
94.8242
 30
0.0
 11
309.131
 21
80.9734
 31
0.0
  0
LINE
  8
0
 62
     0
 10
309.131
 20
80.9734
 30
0.0
 11
295.282
 21
80.9734
 31
0.0
  0
LINE
  8
0
 62
     0
 10
295.282
 20
80.9734
 30
0.0
 11
295.282
 21
94.8242
 31
0.0
  0
LINE
  8
0
 62
     0
 10
314.332
 20
94.8242
 30
0.0
 11
328.181
 21
94.8242
 31
0.0
  0
LINE
  8
0
 62
     0
 10
328.181
 20
94.8242
 30
0.0
 11
328.181
 21
80.9734
 31
0.0
  0
LINE
  8
0
 62
     0
 10
328.181
 20
80.9734
 30
0.0
 11
314.332
 21
80.9734
 31
0.0
  0
LINE
  8
0
 62
     0
 10
314.332
 20
80.9734
 30
0.0
 11
314.332
 21
94.8242
 31
0.0
  0
LINE
  8
0
 62
     0
 10
333.382
 20
94.8242
 30
0.0
 11
347.231
 21
94.8242
 31
0.0
  0
LINE
  8
0
 62
     0
 10
347.231
 20
94.8242
 30
0.0
 11
347.231
 21
80.9734
 31
0.0
  0
LINE
  8
0
 62
     0
 10
347.231
 20
80.9734
 30
0.0
 11
333.382
 21
80.9734
 31
0.0
  0
LINE
  8
0
 62
     0
 10
333.382
 20
80.9734
 30
0.0
 11
333.382
 21
94.8242
 31
0.0
  0
ENDSEC
  0
EOF
